<svg width="159" height="158" viewBox="0 0 159 158" fill="none" xmlns="http://www.w3.org/2000/svg">
<circle cx="79.5637" cy="78.9662" r="78.9188" fill="#5783FF"/>
<path d="M79.5637 24.4072C49.4316 24.4072 25.0046 48.8341 25.0046 78.9662H134.123C134.123 48.8341 109.696 24.4072 79.5637 24.4072Z" fill="white"/>
<path d="M131.177 96.698C133.086 91.1386 134.123 85.1735 134.123 78.9662H25.0045C25.0045 85.1735 26.0411 91.1386 27.9506 96.698H131.177Z" fill="#BCCDFF"/>
<path d="M39.3088 115.794C34.3101 110.333 30.4079 103.851 27.9509 96.6979H131.177C128.72 103.851 124.818 110.333 119.819 115.794H39.3088Z" fill="#9AB4FF"/>
<path d="M119.819 115.794C109.844 126.691 95.5016 133.525 79.5636 133.525C63.6255 133.525 49.2836 126.691 39.3085 115.794H119.819Z" fill="#799BFF"/>
</svg>
