<svg width="116" height="117" viewBox="0 0 116 117" fill="none" xmlns="http://www.w3.org/2000/svg">
<path d="M57.6734 0.736633C25.8213 0.736633 0 26.5579 0 58.41H115.347C115.347 26.5579 89.5255 0.736633 57.6734 0.736633Z" fill="#5783FF"/>
<path d="M112.233 77.1539C114.251 71.2772 115.347 64.9716 115.347 58.41H6.10352e-05C6.10352e-05 64.9716 1.09581 71.2772 3.11432 77.1539H112.233Z" fill="#799BFF"/>
<path d="M15.1208 97.3396C9.83676 91.5668 5.71183 84.7154 3.11462 77.1539H112.233C109.636 84.7154 105.511 91.5668 100.227 97.3396H15.1208Z" fill="#9AB4FF"/>
<path d="M100.226 97.3396C89.6816 108.859 74.5211 116.083 57.6733 116.083C40.8255 116.083 25.6649 108.859 15.1204 97.3396H100.226Z" fill="#BCCDFF"/>
</svg>
